<svg width="61" height="60" viewBox="0 0 61 60" fill="none" xmlns="http://www.w3.org/2000/svg">
<path d="M14.1077 1.19099C24.9141 -0.0167883 36.084 -0.0167883 46.8905 1.19099C50.9477 1.64444 54.5093 3.83851 56.7623 7.02489L28.7491 35.0381L20.1053 26.3942C19.0802 25.3691 17.4181 25.3691 16.393 26.3942C15.3679 27.4193 15.3679 29.0814 16.393 30.1065L26.893 40.6065C27.9181 41.6316 29.5802 41.6316 30.6053 40.6065L59.0093 12.2025C59.088 12.586 59.1508 12.9754 59.1969 13.37C60.4892 24.4193 60.4892 35.5814 59.1969 46.6307C58.4449 53.06 53.2828 58.0953 46.8905 58.8097C36.084 60.0175 24.9142 60.0175 14.1077 58.8097C7.71537 58.0953 2.55323 53.06 1.80126 46.6307C0.508954 35.5814 0.508955 24.4193 1.80126 13.37C2.55323 6.94068 7.71538 1.90543 14.1077 1.19099Z" fill="#C6F4C6"/>
</svg>
