<svg width="28" height="28" viewBox="0 0 28 28" fill="none" xmlns="http://www.w3.org/2000/svg">
<path d="M18.7433 10.4937C19.085 10.152 19.085 9.59799 18.7433 9.25628C18.4016 8.91457 17.8476 8.91457 17.5059 9.25628L13.9998 12.7623L10.4937 9.25628C10.152 8.91457 9.598 8.91457 9.25629 9.25628C8.91458 9.59799 8.91458 10.152 9.25629 10.4937L12.7624 13.9998L9.25628 17.5059C8.91457 17.8476 8.91457 18.4016 9.25628 18.7433C9.59799 19.085 10.152 19.085 10.4937 18.7433L13.9998 15.2372L17.5059 18.7433C17.8476 19.085 18.4016 19.085 18.7433 18.7433C19.085 18.4016 19.085 17.8476 18.7433 17.5059L15.2372 13.9998L18.7433 10.4937Z" fill="#595959"/>
</svg>
