<svg width="24" height="24" viewBox="0 0 24 24" fill="none" xmlns="http://www.w3.org/2000/svg">
<path d="M10.7378 6.04905C10.8394 5.79796 11.0136 5.58293 11.2382 5.43152C11.4628 5.28011 11.7275 5.19922 11.9984 5.19922C12.2692 5.19922 12.5339 5.28011 12.7585 5.43152C12.9831 5.58293 13.1574 5.79796 13.259 6.04905C14.2644 6.32556 15.1513 6.92449 15.7834 7.75385C16.4155 8.58322 16.7578 9.59715 16.7579 10.6399V13.8335L18.0035 15.702C18.0718 15.8044 18.1111 15.9234 18.117 16.0464C18.123 16.1693 18.0955 16.2916 18.0374 16.4001C17.9793 16.5087 17.8929 16.5994 17.7873 16.6626C17.6817 16.7259 17.5609 16.7593 17.4378 16.7593H14.3543C14.2725 17.3257 13.9892 17.8437 13.5566 18.2184C13.1239 18.593 12.5707 18.7992 11.9984 18.7992C11.426 18.7992 10.8729 18.593 10.4402 18.2184C10.0075 17.8437 9.72428 17.3257 9.64241 16.7593H6.55894C6.43584 16.7593 6.31505 16.7259 6.20945 16.6626C6.10385 16.5994 6.0174 16.5087 5.95933 16.4001C5.90125 16.2916 5.87373 16.1693 5.87971 16.0464C5.88568 15.9234 5.92492 15.8044 5.99324 15.702L7.23887 13.8335V10.6399C7.23887 8.44783 8.72111 6.60115 10.7378 6.04905ZM10.7553 16.7593C10.8852 17.1819 11.0726 17.4402 11.2748 17.5832C11.447 17.7051 11.7877 17.7706 11.9987 17.7706C12.2097 17.7706 12.5749 17.7305 12.8331 17.5478C13.1608 17.316 13.2469 16.9583 13.3171 16.7593H10.7553ZM11.9984 6.852C11.0967 6.852 9.93471 7.28101 9.29715 7.91856C8.6596 8.55612 8.30142 9.73828 8.30142 10.6399V14.0396C8.30145 14.1739 8.2617 14.3052 8.18719 14.4169L7.23887 15.702H16.7579L15.8027 14.4169C15.7284 14.3051 15.6889 14.1738 15.6891 14.0396V10.6399C15.6891 9.73828 15.3309 8.55612 14.6934 7.91856C14.0558 7.28101 12.9 6.852 11.9984 6.852Z" fill="#595959"/>
</svg>
