<svg width="24" height="24" viewBox="0 0 24 24" fill="none" xmlns="http://www.w3.org/2000/svg">
<path d="M11.5448 7.85551L12.0016 8.39195L12.4584 7.85551C13.0458 7.16567 13.9496 6.72891 14.8816 6.72891C16.5214 6.72891 17.8016 8.00908 17.8016 9.64891C17.8016 10.6614 17.3516 11.627 16.4371 12.745C15.5158 13.8715 14.1866 15.0783 12.5265 16.5836L12.5257 16.5844L12 17.0629L11.4771 16.5905C11.4768 16.5902 11.4765 16.5899 11.4762 16.5897C9.81642 15.0814 8.48748 13.8732 7.56612 12.746C6.65151 11.627 6.20156 10.6614 6.20156 9.64891C6.20156 8.00908 7.48173 6.72891 9.12156 6.72891C10.0535 6.72891 10.9573 7.16567 11.5448 7.85551Z" stroke="#595959" stroke-width="1.2"/>
</svg>
