<svg width="24" height="24" viewBox="0 0 24 24" fill="none" xmlns="http://www.w3.org/2000/svg">
<rect width="24" height="24" rx="12" fill="#EF1C31"/>
<path d="M14.374 9.0702C14.374 9.97408 13.6512 10.7068 12.7593 10.7068C11.8675 10.7068 11.1445 9.97408 11.1445 9.0702C11.1445 8.16633 11.8675 7.43359 12.7593 7.43359C13.6512 7.43359 14.374 8.16633 14.374 9.0702Z" fill="white"/>
<path d="M8.10073 10.9941C7.55552 10.907 7.29221 11.6378 7.76768 11.9184L9.95933 13.2121L4.87941 19.9593C4.65734 20.2542 5.06069 20.6119 5.32693 20.3561L12.6284 13.3405C13.2238 12.7685 12.9086 11.7622 12.0933 11.632L8.10073 10.9941Z" fill="white"/>
<path d="M12.2837 14.8047L10.5774 16.4463L11.7292 17.9875L9.83736 19.0911C9.53126 19.2697 9.73335 19.7382 10.0733 19.6381L13.3697 18.6672C14.0245 18.4743 14.2979 17.6966 13.9078 17.1364L12.2837 14.8047Z" fill="white"/>
<path d="M15.0477 4.28177C14.9612 4.52802 15.0795 4.79791 15.3122 4.91619C16.1232 5.32855 16.878 5.87711 17.5414 6.56587C17.9198 6.96231 18.2483 7.38068 18.5347 7.81268C18.6869 8.0422 18.9912 8.1221 19.2287 7.98283L21.4941 6.65475C21.738 6.51176 21.8158 6.19448 21.6541 5.96257C21.4652 5.69169 21.2602 5.4227 21.0392 5.15918C19.788 3.6617 18.3921 2.38337 16.504 1.62853C16.2494 1.52677 15.9665 1.66531 15.8757 1.92396L15.0477 4.28177Z" fill="white"/>
<path d="M3.00662 7.26891C3.20963 7.42214 3.49458 7.39788 3.67787 7.22155C4.70443 6.23402 6.17783 5.19664 7.27379 4.71173C7.31531 4.69373 7.35733 4.67574 7.39975 4.65784C7.67364 4.54232 7.80694 4.22182 7.67928 3.95337L7.05939 2.64988C6.93739 2.39334 6.62573 2.28888 6.38121 2.43349C4.9444 3.28317 3.91312 4.35641 3.17528 5.31916C2.91952 5.65518 2.69043 5.9912 2.48315 6.32971C2.3524 6.54322 2.41086 6.81924 2.6107 6.97008L3.00662 7.26891Z" fill="white"/>
<path d="M15.0754 1.74398C15.1734 1.46588 15.0108 1.16287 14.7212 1.10751C14.1506 0.998432 13.5388 0.931437 12.8804 0.912076C10.9768 0.843824 9.38516 1.13984 8.05698 1.63362C7.79092 1.73253 7.67555 2.03978 7.79733 2.29618L8.53723 3.85402C8.63946 4.06927 8.87911 4.18108 9.11251 4.13305C10.5827 3.8305 12.1655 3.86255 13.6604 4.27767C13.9239 4.35085 14.2049 4.21516 14.2957 3.95722L15.0754 1.74398Z" fill="white"/>
<path d="M2.80873 8.19164C2.82144 8.17651 2.81453 8.15284 2.79878 8.1409L2.37393 7.81889C2.12025 7.62661 1.75302 7.71802 1.63358 8.01307C0.247606 11.4368 0.843335 14.5934 0.942069 15.0541C0.949606 15.0893 0.980298 15.1118 1.01626 15.1118V15.1118C1.06546 15.1118 1.10295 15.067 1.0953 15.0184C1.00388 14.4377 0.627705 11.244 2.80524 8.19604C2.80648 8.19432 2.80736 8.19326 2.80873 8.19164V8.19164Z" fill="white"/>
<path d="M19.5851 8.73686C19.3605 8.8686 19.2759 9.15067 19.3788 9.38988C20.2879 11.5035 20.4089 13.6139 20.4097 14.5758C20.41 14.8668 20.6434 15.1147 20.9344 15.1147H23.2206C23.456 15.1147 23.6578 14.9501 23.6902 14.717C23.8372 13.6612 24.0696 10.6569 22.5951 7.57402C22.4727 7.31795 22.1562 7.22888 21.9113 7.37249L19.5851 8.73686Z" fill="white"/>
</svg>
